<svg xmlns="http://www.w3.org/2000/svg" viewBox="0 0 60 80" width="480" height="640" shape-rendering="crispEdges">
  <rect x="0" y="0" width="60" height="80" fill="#000000" />

  <rect x="8" y="4" width="44" height="62" fill="#82C8EB" />

  <polygon points="8,26 26,8 38,8 8,38" fill="#BDE4F8" />
  <polygon points="12,56 52,16 52,30 26,56" fill="#BDE4F8" />
  <polygon points="36,66 52,50 52,60 42,66" fill="#BDE4F8" />

  <rect x="19" y="4" width="4" height="62" fill="#202020" />
  <rect x="37" y="4" width="4" height="62" fill="#202020" />
  <rect x="8" y="24" width="44" height="4" fill="#202020" />
  <rect x="8" y="44" width="44" height="4" fill="#202020" />

  <rect x="20" y="4" width="2" height="62" fill="#FFFFFF" />
  <rect x="38" y="4" width="2" height="62" fill="#FFFFFF" />
  <rect x="8" y="25" width="44" height="2" fill="#FFFFFF" />
  <rect x="8" y="45" width="44" height="2" fill="#FFFFFF" />

  <rect x="1" y="1" width="6" height="78" fill="#A0A0A0" />
  <rect x="53" y="1" width="6" height="78" fill="#A0A0A0" />
  <rect x="8" y="1" width="44" height="3" fill="#A0A0A0" />
  
  <rect x="8" y="67" width="44" height="2" fill="#A0A0A0" />

  <rect x="8" y="70" width="44" height="9" fill="#4B4B4B" />

  <rect x="3" y="10" width="2" height="4" fill="#808080" />
  <rect x="2" y="30" width="2" height="2" fill="#808080" />
  <rect x="4" y="50" width="2" height="6" fill="#808080" />
  <rect x="2" y="70" width="2" height="2" fill="#808080" />

  <rect x="55" y="15" width="2" height="3" fill="#808080" />
  <rect x="54" y="40" width="2" height="5" fill="#808080" />
  <rect x="56" y="65" width="2" height="2" fill="#808080" />

  <rect x="12" y="73" width="6" height="1" fill="#3A3A3A" />
  <rect x="25" y="76" width="10" height="1" fill="#3A3A3A" />
  <rect x="42" y="74" width="5" height="1" fill="#3A3A3A" />
</svg>
